<svg xmlns:dc="http://purl.org/dc/elements/1.1/" xmlns:cc="http://creativecommons.org/ns#" xmlns:rdf="http://www.w3.org/1999/02/22-rdf-syntax-ns#" xmlns:svg="http://www.w3.org/2000/svg" xmlns="http://www.w3.org/2000/svg" xmlns:sodipodi="http://sodipodi.sourceforge.net/DTD/sodipodi-0.dtd" xmlns:inkscape="http://www.inkscape.org/namespaces/inkscape" version="1.1" id="svg2" xml:space="preserve" width="370.51999" height="208.8" viewBox="0 0 370.51999 208.8" sodipodi:docname="MSK_Logo_2015_grau_orange_sRGB.eps"><metadata id="metadata8"><rdf:RDF><cc:Work rdf:about=""><dc:format>image/svg+xml</dc:format><dc:type rdf:resource="http://purl.org/dc/dcmitype/StillImage"/></cc:Work></rdf:RDF></metadata><defs id="defs6"/><sodipodi:namedview pagecolor="#ffffff" bordercolor="#666666" borderopacity="1" objecttolerance="10" gridtolerance="10" guidetolerance="10" inkscape:pageopacity="0" inkscape:pageshadow="2" inkscape:window-width="640" inkscape:window-height="480" id="namedview4"/><g id="g10" inkscape:groupmode="layer" inkscape:label="ink_ext_XXXXXX" transform="matrix(1.3333333,0,0,-1.3333333,0,208.8)"><g id="g12" transform="scale(0.1)"><path d="M 297.465,1566.02 H 2752.29 L 2537.22,1268.55 H 0 l 297.465,297.47 v 0" style="fill:#ec721e;fill-opacity:1;fill-rule:nonzero;stroke:none" id="path14"/><path d="m 905.855,288.66 v 885.83 H 695.477 L 462.973,760.473 230.406,1174.49 H 17.4961 V 288.66 H 247.813 v 211.336 c 0,87.313 -1.27,167.039 -5.063,235.375 26.574,-65.805 218.926,-306.543 218.926,-306.543 0,0 192.351,240.738 218.926,306.543 -3.797,-68.336 -5.059,-148.062 -5.059,-235.375 V 288.66 h 230.312 v 0" style="fill:#3a4649;fill-opacity:1;fill-rule:nonzero;stroke:none" id="path16"/><path d="m 1627.19,651.617 c -3.09,98.762 -66.04,168.031 -181.33,168.031 h -167.88 c -37.5,0 -50,12.5 -50,52.774 v 55.25 c 0,40.277 12.5,52.773 50,52.773 l 333.77,0.008 0.01,187.957 h -434.08 c -115.28,0 -177.778,-56.95 -177.778,-180.555 V 833.23 c 0,-123.605 62.498,-192.898 177.778,-192.898 h 171.44 c 37.5,0 50.01,-12.5 50.01,-52.773 v -54.938 c 0,-40.277 -12.51,-52.777 -50.01,-52.777 l -332.37,0.019 -0.03,-194.152 h 408.01 c 115.27,0 202.46,87.809 202.46,211.418 v 154.488 0" style="fill:#3a4649;fill-opacity:1;fill-rule:nonzero;stroke:none" id="path18"/><path d="M 1722.82,1171.13 V 286.426 h 251.88 v 370.926 l 231.14,-370.926 h 286.25 l -307.84,452.379 311.23,432.325 H 2200.73 L 1974.7,817.754 v 353.376 h -251.88 v 0" style="fill:#3a4649;fill-opacity:1;fill-rule:nonzero;stroke:none" id="path20"/><path d="m 2564.72,1192.02 214.23,300.83 V 607.852 l -214.23,-322.5 v 906.668 0" style="fill:#ec721e;fill-opacity:1;fill-rule:nonzero;stroke:none" id="path22"/><path d="M 148.695,136.648 C 138.094,158.574 118.813,174 87,174 42.8984,174 12.0508,138.332 12.0508,87.0039 12.0508,33.7383 41.6914,0 85.7969,0 116.402,0 136.645,14.2188 148.215,38.0781 L 119.777,54.9453 C 110.859,40.0078 101.941,33.5 86.7578,33.5 61.457,33.5 46.75,56.6328 46.75,87.0039 c 0,31.3281 14.4648,53.4961 39.7695,53.4961 15.1795,0 24.8205,-6.75 30.8435,-18.316 l 31.332,14.464 v 0" style="fill:#3a4649;fill-opacity:1;fill-rule:nonzero;stroke:none" id="path24"/><path d="M 248.258,174 C 202.227,174 174.996,138.336 174.996,87.0039 174.996,35.668 202.227,0 248.258,0 294.285,0 321.516,35.668 321.516,87.0039 321.516,138.336 294.285,174 248.258,174 Z m 0,-140.5 c -27.235,0 -38.559,23.3789 -38.559,53.5039 0,30.1211 11.324,53.4961 38.559,53.4961 27.23,0 38.558,-23.375 38.558,-53.4961 0,-30.125 -11.328,-53.5039 -38.558,-53.5039" style="fill:#3a4649;fill-opacity:1;fill-rule:nonzero;stroke:none" id="path26"/><path d="M 495.051,171.348 H 458.18 L 427.094,73.7461 c -3.133,-9.8789 -6.27,-21.4492 -7.711,-27.7148 -1.449,6.0234 -4.82,18.3164 -7.957,27.7148 L 379.617,171.348 H 342.262 L 402.27,2.65234 h 32.777 L 495.051,171.348 v 0" style="fill:#3a4649;fill-opacity:1;fill-rule:nonzero;stroke:none" id="path28"/><path d="M 654.375,2.65234 V 35.668 h -87.004 v 40.7304 h 48.442 v 32.7776 h -48.442 v 29.156 h 83.383 v 33.016 H 533.633 V 2.65234 h 120.742 v 0" style="fill:#3a4649;fill-opacity:1;fill-rule:nonzero;stroke:none" id="path30"/><path d="m 836.59,117.848 c 0,35.91 -26.27,53.5 -58.082,53.5 H 699.941 V 2.65234 h 33.743 V 63.3828 h 33.98 L 797.785,2.65234 H 836.59 L 804.301,68.2031 c 21.445,8.4375 32.289,24.3399 32.289,49.6449 z M 777.789,95.1914 h -44.105 v 43.3826 h 44.105 c 14.938,0 24.094,-6.265 24.094,-21.449 0,-14.699 -8.43,-21.9336 -24.094,-21.9336" style="fill:#3a4649;fill-opacity:1;fill-rule:nonzero;stroke:none" id="path32"/><path d="m 998.074,138.098 v 33.25 H 867.461 v -33.25 h 48.437 V 2.65234 h 33.743 V 138.098 h 48.433 v 0" style="fill:#3a4649;fill-opacity:1;fill-rule:nonzero;stroke:none" id="path34"/><path d="M 1151.36,2.65234 V 35.668 h -87 v 40.7304 h 48.44 v 32.7776 h -48.44 v 29.156 h 83.38 v 33.016 H 1030.62 V 2.65234 h 120.74 v 0" style="fill:#3a4649;fill-opacity:1;fill-rule:nonzero;stroke:none" id="path36"/><path d="M 1318.88,136.648 C 1308.27,158.574 1289,174 1257.18,174 c -44.1,0 -74.95,-35.668 -74.95,-86.9961 C 1182.23,33.7383 1211.87,0 1255.97,0 c 30.62,0 50.85,14.2188 62.42,38.0781 l -28.43,16.8672 C 1281.04,40.0078 1272.12,33.5 1256.94,33.5 c -25.3,0 -40.01,23.1328 -40.01,53.5039 0,31.3281 14.46,53.4961 39.77,53.4961 15.19,0 24.83,-6.75 30.84,-18.316 l 31.34,14.464 v 0" style="fill:#3a4649;fill-opacity:1;fill-rule:nonzero;stroke:none" id="path38"/><path d="M 1501.34,2.65234 V 171.348 h -33.73 v -64.586 h -69.18 v 64.586 H 1364.7 V 2.65234 h 33.73 V 73.5078 h 69.18 V 2.65234 h 33.73 v 0" style="fill:#3a4649;fill-opacity:1;fill-rule:nonzero;stroke:none" id="path40"/><path d="m 1760.47,67.9609 v 22.1719 h -60.51 V 58.5625 h 26.76 c -1.92,-14.6992 -9.88,-25.543 -33.02,-25.543 -25.31,0 -40,22.8907 -40,53.9844 0,31.3281 14.45,53.4961 39.77,53.4961 18.3,0 26.03,-9.398 32.29,-21.926 l 32.05,13.25 C 1746.73,157.855 1728.41,174 1693.95,174 1649.84,174 1619,138.332 1619,87.0039 1619,33.7383 1648.63,0 1692.73,0 c 39.05,0 67.74,24.582 67.74,67.9609 v 0" style="fill:#3a4649;fill-opacity:1;fill-rule:nonzero;stroke:none" id="path42"/><path d="m 1944.85,117.848 c 0,35.91 -26.27,53.5 -58.08,53.5 H 1808.2 V 2.65234 h 33.75 V 63.3828 h 33.98 l 30.12,-60.73046 h 38.8 l -32.29,65.55076 c 21.45,8.4375 32.29,24.3399 32.29,49.6449 z m -58.8,-22.6566 h -44.1 v 43.3826 h 44.1 c 14.94,0 24.1,-6.265 24.1,-21.449 0,-14.699 -8.44,-21.9336 -24.1,-21.9336" style="fill:#3a4649;fill-opacity:1;fill-rule:nonzero;stroke:none" id="path44"/><path d="m 2054.28,174 c -46.02,0 -73.25,-35.664 -73.25,-86.9961 C 1981.03,35.668 2008.26,0 2054.28,0 c 46.04,0 73.26,35.668 73.26,87.0039 0,51.3321 -27.22,86.9961 -73.26,86.9961 z m 0,-140.5 c -27.23,0 -38.55,23.3789 -38.55,53.5039 0,30.1211 11.32,53.4961 38.55,53.4961 27.24,0 38.56,-23.375 38.56,-53.4961 0,-30.125 -11.32,-53.5039 -38.56,-53.5039" style="fill:#3a4649;fill-opacity:1;fill-rule:nonzero;stroke:none" id="path46"/><path d="m 2309.52,77.1172 v 94.2308 h -33.74 V 76.6406 c 0,-26.9961 -13.26,-43.6211 -34.71,-43.6211 -21.45,0 -34.46,17.1094 -34.46,44.0977 v 94.2308 h -33.74 V 76.6406 C 2172.87,27.4727 2200.35,0 2241.07,0 c 42.9,0 68.45,28.1992 68.45,77.1172 v 0" style="fill:#3a4649;fill-opacity:1;fill-rule:nonzero;stroke:none" id="path48"/><path d="m 2432.67,171.348 h -73.74 V 2.65234 h 33.73 V 62.4219 h 37.11 c 34.96,0 60.98,16.3867 60.98,55.4261 0,35.91 -26.27,53.5 -58.08,53.5 z m -0.72,-76.1566 h -39.29 v 43.3826 h 38.81 c 14.94,0 24.58,-6.75 24.58,-21.449 0,-14.699 -8.43,-21.9336 -24.1,-21.9336" style="fill:#3a4649;fill-opacity:1;fill-rule:nonzero;stroke:none" id="path50"/></g></g></svg>