<?xml version="1.0" encoding="UTF-8"?>
<svg version="1.1" xmlns="http://www.w3.org/2000/svg" width="211" height="45">
<path d="M0 0 C4.60494656 3.39482833 6.86972307 6.66657007 8.0625 12.25 C8.64083122 18.26686903 8.06230087 22.87104671 5.0625 28.25 C0.26425418 33.80586358 -4.21090904 36.75299569 -11.5390625 37.30078125 C-16.7785809 37.18984682 -20.99154167 35.93279063 -24.98828125 32.4765625 C-29.47439882 27.62821183 -31.63538852 23.51280401 -32.25 16.875 C-31.67877242 10.24876012 -30.0839733 5.94522013 -25.125 1.375 C-17.20767798 -4.9186244 -8.62540479 -5.45058153 0 0 Z M-24.9375 8.25 C-27.73545055 12.26039579 -28.54250874 15.53690712 -27.703125 20.28125 C-26.21902317 24.09751184 -23.47192598 26.32468644 -19.9375 28.25 C-15.51515526 29.02584995 -13.59125472 28.59537985 -9.625 26.5 C-5.82129401 23.31550196 -5.10734457 21.77860114 -4.5625 16.875 C-5.00918615 12.55703393 -6.1690711 10.55673452 -8.9375 7.25 C-13.88582979 3.49609464 -20.35698581 4.43290484 -24.9375 8.25 Z " fill="#9D9D9D" transform="translate(201.9375,5.75)"/>
<path d="M0 0 C1.19496094 -0.00257813 2.38992188 -0.00515625 3.62109375 -0.0078125 C4.87019531 -0.00007812 6.11929687 0.00765625 7.40625 0.015625 C9.27990234 0.00402344 9.27990234 0.00402344 11.19140625 -0.0078125 C12.98384766 -0.00394531 12.98384766 -0.00394531 14.8125 0 C16.45702148 0.00338379 16.45702148 0.00338379 18.13476562 0.00683594 C20.90625 0.265625 20.90625 0.265625 23.90625 2.265625 C24.24682617 5.06298828 24.24682617 5.06298828 24.19921875 8.5859375 C24.1847168 10.47119141 24.1847168 10.47119141 24.16992188 12.39453125 C24.14478516 13.71324219 24.11964844 15.03195313 24.09375 16.390625 C24.07870483 17.73045403 24.06501613 19.07029904 24.05273438 20.41015625 C24.01727872 23.69571342 23.96785849 26.98047082 23.90625 30.265625 C21.59625 30.265625 19.28625 30.265625 16.90625 30.265625 C16.57625 23.005625 16.24625 15.745625 15.90625 8.265625 C14.58625 7.935625 13.26625 7.605625 11.90625 7.265625 C11.90625 14.855625 11.90625 22.445625 11.90625 30.265625 C9.26625 30.265625 6.62625 30.265625 3.90625 30.265625 C3.90625 22.675625 3.90625 15.085625 3.90625 7.265625 C2.25625 7.265625 0.60625 7.265625 -1.09375 7.265625 C-1.09375 14.855625 -1.09375 22.445625 -1.09375 30.265625 C-3.73375 30.265625 -6.37375 30.265625 -9.09375 30.265625 C-9.16784401 26.31470441 -9.22232406 22.36405206 -9.25854492 18.41259766 C-9.28107251 16.40643126 -9.3191857 14.40045974 -9.35742188 12.39453125 C-9.36708984 11.13769531 -9.37675781 9.88085938 -9.38671875 8.5859375 C-9.4024292 7.42336426 -9.41813965 6.26079102 -9.43432617 5.06298828 C-9.32193604 4.1398584 -9.2095459 3.21672852 -9.09375 2.265625 C-5.59245264 -0.06857324 -4.13913161 0.00851673 0 0 Z " fill="#E3272B" transform="translate(10.09375,6.734375)"/>
<path d="M0 0 C14 0 14 0 20 3 C21.37792546 5.75585092 21.0585294 7.99336471 21 11.0625 C20.96235323 13.04130858 20.95337573 15.02138259 21 17 C21.33 17.33 21.66 17.66 22 18 C22.07244053 20.01964199 22.08377188 22.04167124 22.0625 24.0625 C22.05347656 25.16722656 22.04445312 26.27195312 22.03515625 27.41015625 C22.02355469 28.26480469 22.01195312 29.11945312 22 30 C19.36 30 16.72 30 14 30 C14 26.7 14 23.4 14 20 C11.69 20 9.38 20 7 20 C7 23.3 7 26.6 7 30 C4.69 30 2.38 30 0 30 C0 20.1 0 10.2 0 0 Z M7 7 C7 8.98 7 10.96 7 13 C10.465 12.505 10.465 12.505 14 12 C14 10.68 14 9.36 14 8 C11.69 7.67 9.38 7.34 7 7 Z " fill="#E4252A" transform="translate(140,7)"/>
<path d="M0 0 C14 0 14 0 20 3 C21.64596147 6.29192294 21.01378964 9.84499206 20.9375 13.46875 C20.82047338 15.99511297 20.82047338 15.99511297 22 18 C22.07065617 20.04055005 22.08421976 22.08334257 22.0625 24.125 C22.05347656 25.22070312 22.04445313 26.31640625 22.03515625 27.4453125 C22.02355469 28.28835937 22.01195313 29.13140625 22 30 C19.69 30 17.38 30 15 30 C14.67 26.7 14.34 23.4 14 20 C11.69 20 9.38 20 7 20 C7 23.3 7 26.6 7 30 C4.69 30 2.38 30 0 30 C0 20.1 0 10.2 0 0 Z M7 7 C7 8.98 7 10.96 7 13 C10.465 12.505 10.465 12.505 14 12 C14 10.68 14 9.36 14 8 C11.69 7.67 9.38 7.34 7 7 Z " fill="#E32529" transform="translate(90,7)"/>
<path d="M0 0 C2.31 0 4.62 0 7 0 C7.01981934 0.55461914 7.03963867 1.10923828 7.06005859 1.68066406 C7.15557651 4.20423693 7.26514567 6.72701224 7.375 9.25 C7.4059375 10.12269531 7.436875 10.99539062 7.46875 11.89453125 C7.50742188 12.73886719 7.54609375 13.58320313 7.5859375 14.453125 C7.6173584 15.22817383 7.6487793 16.00322266 7.68115234 16.80175781 C8.03026506 19.20865742 8.80551104 20.89602295 10 23 C11.32 23 12.64 23 14 23 C15.20270964 20.59458071 15.20316663 18.89633409 15.31640625 16.2109375 C15.35830078 15.26992188 15.40019531 14.32890625 15.44335938 13.359375 C15.48267578 12.37453125 15.52199219 11.3896875 15.5625 10.375 C15.60568359 9.38242187 15.64886719 8.38984375 15.69335938 7.3671875 C15.79961069 4.91160162 15.90164964 2.45591297 16 0 C18.64 0 21.28 0 24 0 C24.11674705 3.70806596 24.18743274 7.4156554 24.25 11.125 C24.28351563 12.17171875 24.31703125 13.2184375 24.3515625 14.296875 C24.43060476 20.54121366 24.22560291 24.26984748 20 29 C16.97135019 31.37965342 13.75248888 31.35961865 9.9609375 31.25390625 C6.18971174 30.76560013 3.8965148 28.97319664 1.3815918 26.24316406 C-0.35824676 23.41834754 -0.34563115 21.65955237 -0.29296875 18.359375 C-0.28330078 17.28945313 -0.27363281 16.21953125 -0.26367188 15.1171875 C-0.23853516 14.00601562 -0.21339844 12.89484375 -0.1875 11.75 C-0.17396484 10.62335937 -0.16042969 9.49671875 -0.14648438 8.3359375 C-0.11115645 5.55680736 -0.0618252 2.77864637 0 0 Z " fill="#E4262C" transform="translate(62,7)"/>
<path d="M0 0 C0.74958984 0.00451172 1.49917969 0.00902344 2.27148438 0.01367188 C4.11852383 0.02543646 5.96552213 0.04337135 7.8125 0.0625 C7.8125 2.3725 7.8125 4.6825 7.8125 7.0625 C3.8525 7.0625 -0.1075 7.0625 -4.1875 7.0625 C-4.1875 8.7125 -4.1875 10.3625 -4.1875 12.0625 C-0.2275 12.0625 3.7325 12.0625 7.8125 12.0625 C7.8125 14.3725 7.8125 16.6825 7.8125 19.0625 C3.8525 19.0625 -0.1075 19.0625 -4.1875 19.0625 C-4.1875 20.3825 -4.1875 21.7025 -4.1875 23.0625 C-0.2275 23.0625 3.7325 23.0625 7.8125 23.0625 C7.8125 25.3725 7.8125 27.6825 7.8125 30.0625 C1.5425 30.0625 -4.7275 30.0625 -11.1875 30.0625 C-12.50748825 27.42252351 -12.31706032 25.42172683 -12.3203125 22.46875 C-12.32224609 20.80005859 -12.32224609 20.80005859 -12.32421875 19.09765625 C-12.32035156 17.93105469 -12.31648438 16.76445312 -12.3125 15.5625 C-12.31636719 14.39589844 -12.32023437 13.22929687 -12.32421875 12.02734375 C-12.32292969 10.91488281 -12.32164063 9.80242188 -12.3203125 8.65625 C-12.31862061 7.12000977 -12.31862061 7.12000977 -12.31689453 5.55273438 C-12.1875 3.0625 -12.1875 3.0625 -11.1875 1.0625 C-7.42449626 -0.19183458 -3.91539091 -0.04445422 0 0 Z " fill="#E42B30" transform="translate(128.1875,6.9375)"/>
<path d="M0 0 C0.74958984 0.00451172 1.49917969 0.00902344 2.27148438 0.01367188 C4.11852383 0.02543646 5.96552213 0.04337135 7.8125 0.0625 C7.8125 2.3725 7.8125 4.6825 7.8125 7.0625 C4.1825 7.3925 0.5525 7.7225 -3.1875 8.0625 C-3.5175 9.3825 -3.8475 10.7025 -4.1875 12.0625 C-0.2275 12.0625 3.7325 12.0625 7.8125 12.0625 C7.8125 14.3725 7.8125 16.6825 7.8125 19.0625 C3.8525 19.0625 -0.1075 19.0625 -4.1875 19.0625 C-4.1875 20.3825 -4.1875 21.7025 -4.1875 23.0625 C-0.2275 23.0625 3.7325 23.0625 7.8125 23.0625 C7.8125 25.3725 7.8125 27.6825 7.8125 30.0625 C4.85392591 30.11629226 1.89632279 30.15607093 -1.0625 30.1875 C-2.32513672 30.21263672 -2.32513672 30.21263672 -3.61328125 30.23828125 C-4.82177734 30.24794922 -4.82177734 30.24794922 -6.0546875 30.2578125 C-6.79831543 30.26828613 -7.54194336 30.27875977 -8.30810547 30.28955078 C-10.1875 30.0625 -10.1875 30.0625 -12.1875 28.0625 C-12.43041992 25.57226562 -12.43041992 25.57226562 -12.41796875 22.46875 C-12.41603516 21.35628906 -12.41410156 20.24382813 -12.41210938 19.09765625 C-12.39986328 17.93105469 -12.38761719 16.76445312 -12.375 15.5625 C-12.37435547 14.39589844 -12.37371094 13.22929687 -12.37304688 12.02734375 C-12.32776365 3.3430273 -12.32776365 3.3430273 -11.1875 1.0625 C-7.42449626 -0.19183458 -3.91539091 -0.04445422 0 0 Z " fill="#E42B30" transform="translate(50.1875,6.9375)"/>
</svg>
